<svg class="icon" viewBox="0 0 1609 1024" version="1.1" xmlns="http://www.w3.org/2000/svg" width="300" height="300">
    <path d="M106.39847633 194.56A73.142857 73.142857 0 0 0 43.27619033 304.713143l402.432 683.154286a73.142857 73.142857 0 0 0 63.049143 36.059428h365.056a73.142857 73.142857 0 0 0 63.049143-110.299428l-122.221714-207.579429-77.092572 131.657143H587.97104733a36.571429 36.571429 0 0 1-31.597714-55.076572l151.259429-258.413714-173.129143-293.741714a73.142857 73.142857 0 0 0-63.049143-36.059429H106.39847633zM738.49904733 0a73.142857 73.142857 0 0 0-63.049143 110.299429l137.728 233.618285 80.822858-138.24h149.942857a36.571429 36.571429 0 0 1 31.451428 55.003429L920.25904733 525.750857l157.696 267.702857a73.142857 73.142857 0 0 0 62.976 36.059429H1506.13333333a73.142857 73.142857 0 0 0 62.976-110.299429L1166.60419033 36.059429A73.142857 73.142857 0 0 0 1103.55504733 0H738.49904733z" fill="#5340ff"></path>
</svg>
